<svg width="18" height="17" viewBox="0 0 18 17" fill="none" xmlns="http://www.w3.org/2000/svg">
<path d="M9.47553 0.845491C9.40859 0.63948 9.21661 0.5 9 0.5C8.78339 0.5 8.59141 0.63948 8.52447 0.845491L6.84062 6.02786H1.39155C1.17493 6.02786 0.982957 6.16734 0.916019 6.37336C0.849082 6.57937 0.922411 6.80505 1.09766 6.93237L5.50604 10.1353L3.82219 15.3176C3.75525 15.5236 3.82858 15.7493 4.00383 15.8766C4.17907 16.004 4.41637 16.004 4.59161 15.8766L9 12.6738L13.4084 15.8766C13.5836 16.004 13.8209 16.004 13.9962 15.8766C14.1714 15.7493 14.2447 15.5236 14.1778 15.3176L12.494 10.1353L16.9023 6.93237C17.0776 6.80505 17.1509 6.57937 17.084 6.37336C17.017 6.16734 16.8251 6.02786 16.6085 6.02786H11.1594L9.47553 0.845491Z" fill="#A5311D" stroke="#A5311D" stroke-linejoin="round"/>
</svg>
